<?xml version="1.0" encoding="UTF-8" standalone="no"?><!-- Generator: Gravit.io --><svg xmlns="http://www.w3.org/2000/svg" xmlns:xlink="http://www.w3.org/1999/xlink" style="isolation:isolate" viewBox="0 0 100 100" width="100pt" height="100pt"><defs><clipPath id="_clipPath_ZTzRryYO0Y7AisHNwmNCvEGm5vvtcFNG"><rect width="100" height="100"/></clipPath></defs><g clip-path="url(#_clipPath_ZTzRryYO0Y7AisHNwmNCvEGm5vvtcFNG)"><path d=" M 50.01 1 C 47.184 1 44.411 1.255 41.715 1.714 L 40.4 15.651 C 37.612 16.428 34.974 17.514 32.506 18.906 L 21.736 10.009 C 17.187 13.229 13.205 17.189 9.985 21.738 L 18.904 32.508 C 17.514 34.973 16.403 37.618 15.626 40.401 L 1.713 41.724 C 1.254 44.419 1 47.193 1 50.045 C 1 52.877 1.252 55.639 1.714 58.339 L 15.628 59.655 C 16.404 62.439 17.515 65.084 18.905 67.549 L 10.008 78.319 C 13.222 82.856 17.178 86.833 21.715 90.047 L 32.507 81.128 C 34.977 82.521 37.611 83.629 40.401 84.406 L 41.716 98.342 C 44.412 98.802 47.185 99.034 50.011 99.034 C 52.837 99.034 55.588 98.802 58.284 98.342 L 59.599 84.406 C 62.389 83.629 65.023 82.521 67.493 81.128 L 78.285 90.047 C 82.822 86.833 86.778 82.855 89.992 78.319 L 81.095 67.549 C 82.485 65.084 83.596 62.439 84.372 59.655 L 98.286 58.339 C 98.748 55.639 99 52.877 99 50.045 C 99 47.218 98.746 44.446 98.286 41.75 L 84.372 40.434 C 83.596 37.65 82.485 35.005 81.095 32.541 L 90.014 21.771 C 86.794 17.221 82.812 13.262 78.263 10.042 L 67.492 18.939 C 65.025 17.547 62.386 16.46 59.599 15.683 L 58.283 1.747 C 55.588 1.287 52.837 1.033 50.011 1.033 L 50.01 1 Z  M 50.01 31.348 C 60.316 31.348 68.652 39.705 68.652 50.011 C 68.652 60.317 60.317 68.674 50.01 68.674 C 39.705 68.674 31.347 60.317 31.347 50.011 C 31.347 39.705 39.705 31.348 50.01 31.348 Z " fill="none" vector-effect="non-scaling-stroke" stroke-width="1" stroke="rgb(0,0,0)" stroke-linejoin="miter" stroke-linecap="butt" stroke-miterlimit="4"/><defs><filter id="tSNnL4Z4tLSJfdhyP75obIOR8q6dfRnB" x="-200%" y="-200%" width="400%" height="400%" filterUnits="objectBoundingBox" color-interpolation-filters="sRGB"><feGaussianBlur xmlns="http://www.w3.org/2000/svg" stdDeviation="0.8587218125678057"/></filter></defs><g filter="url(#tSNnL4Z4tLSJfdhyP75obIOR8q6dfRnB)"><path d=" M 50.01 1 C 47.184 1 44.411 1.255 41.715 1.714 L 40.4 15.651 C 37.612 16.428 34.974 17.514 32.506 18.906 L 21.736 10.009 C 17.187 13.229 13.205 17.189 9.985 21.738 L 18.904 32.508 C 17.514 34.973 16.403 37.618 15.626 40.401 L 1.713 41.724 C 1.254 44.419 1 47.193 1 50.045 C 1 52.877 1.252 55.639 1.714 58.339 L 15.628 59.655 C 16.404 62.439 17.515 65.084 18.905 67.549 L 10.008 78.319 C 13.222 82.856 17.178 86.833 21.715 90.047 L 32.507 81.128 C 34.977 82.521 37.611 83.629 40.401 84.406 L 41.716 98.342 C 44.412 98.802 47.185 99.034 50.011 99.034 C 52.837 99.034 55.588 98.802 58.284 98.342 L 59.599 84.406 C 62.389 83.629 65.023 82.521 67.493 81.128 L 78.285 90.047 C 82.822 86.833 86.778 82.855 89.992 78.319 L 81.095 67.549 C 82.485 65.084 83.596 62.439 84.372 59.655 L 98.286 58.339 C 98.748 55.639 99 52.877 99 50.045 C 99 47.218 98.746 44.446 98.286 41.75 L 84.372 40.434 C 83.596 37.65 82.485 35.005 81.095 32.541 L 90.014 21.771 C 86.794 17.221 82.812 13.262 78.263 10.042 L 67.492 18.939 C 65.025 17.547 62.386 16.46 59.599 15.683 L 58.283 1.747 C 55.588 1.287 52.837 1.033 50.011 1.033 L 50.01 1 Z  M 50.01 31.348 C 60.316 31.348 68.652 39.705 68.652 50.011 C 68.652 60.317 60.317 68.674 50.01 68.674 C 39.705 68.674 31.347 60.317 31.347 50.011 C 31.347 39.705 39.705 31.348 50.01 31.348 Z " fill="none" vector-effect="non-scaling-stroke" stroke-width="1" stroke="rgb(0,0,0)" stroke-linejoin="miter" stroke-linecap="butt" stroke-miterlimit="4"/></g></g></svg>